<svg width="43" height="44" viewBox="0 0 43 44" fill="none" xmlns="http://www.w3.org/2000/svg">
<path d="M24.2594 35.2434C23.6523 34.1978 22.75 31.2392 22.75 27.375C22.75 25.0544 21.8281 22.8288 20.1872 21.1878C18.5462 19.5469 16.3206 18.625 14 18.625C11.6794 18.625 9.45376 19.5469 7.81281 21.1878C6.17187 22.8288 5.25 25.0544 5.25 27.375C5.25 31.2403 4.34656 34.1978 3.73953 35.2434C3.58451 35.5093 3.50233 35.8113 3.50128 36.119C3.50022 36.4267 3.58033 36.7293 3.73351 36.9962C3.8867 37.263 4.10755 37.4848 4.3738 37.6391C4.64005 37.7934 4.94227 37.8748 5.25 37.875H9.71359C9.91547 38.8628 10.4523 39.7506 11.2334 40.3882C12.0145 41.0258 12.9918 41.374 14 41.374C15.0082 41.374 15.9855 41.0258 16.7666 40.3882C17.5477 39.7506 18.0845 38.8628 18.2864 37.875H22.75C23.0576 37.8746 23.3597 37.7931 23.6258 37.6387C23.8919 37.4843 24.1126 37.2625 24.2657 36.9957C24.4187 36.7288 24.4987 36.4264 24.4976 36.1187C24.4965 35.8111 24.4143 35.5092 24.2594 35.2434ZM14 39.625C13.4573 39.6248 12.928 39.4565 12.4849 39.1431C12.0419 38.8297 11.7068 38.3867 11.5259 37.875H16.4741C16.2932 38.3867 15.9581 38.8297 15.5151 39.1431C15.072 39.4565 14.5427 39.6248 14 39.625ZM5.25 36.125C6.09219 34.6769 7 31.3213 7 27.375C7 25.5185 7.7375 23.738 9.05025 22.4253C10.363 21.1125 12.1435 20.375 14 20.375C15.8565 20.375 17.637 21.1125 18.9497 22.4253C20.2625 23.738 21 25.5185 21 27.375C21 31.318 21.9056 34.6736 22.75 36.125H5.25Z" fill="#878787"/>
<rect x="12.5" y="1.5" width="29" height="29" rx="14.5" fill="#797FE9" stroke="white" stroke-width="3"/>
<path d="M21.504 12.6V10.794H24.878V21H22.862V12.6H21.504ZM27.4303 18.788C28.3263 18.0413 29.0403 17.4207 29.5723 16.926C30.1043 16.422 30.5476 15.8993 30.9023 15.358C31.2569 14.8167 31.4343 14.2847 31.4343 13.762C31.4343 13.286 31.3223 12.9127 31.0983 12.642C30.8743 12.3713 30.5289 12.236 30.0623 12.236C29.5956 12.236 29.2363 12.3947 28.9843 12.712C28.7323 13.02 28.6016 13.4447 28.5923 13.986H26.6883C26.7256 12.866 27.0569 12.0167 27.6823 11.438C28.3169 10.8593 29.1196 10.57 30.0903 10.57C31.1543 10.57 31.9709 10.8547 32.5403 11.424C33.1096 11.984 33.3943 12.726 33.3943 13.65C33.3943 14.378 33.1983 15.0733 32.8063 15.736C32.4143 16.3987 31.9663 16.9773 31.4623 17.472C30.9583 17.9573 30.3003 18.5453 29.4883 19.236H33.6183V20.86H26.7023V19.404L27.4303 18.788Z" fill="white"/>
</svg>
